<?xml version="1.0" standalone="no"?>
<!DOCTYPE svg PUBLIC "-//W3C//DTD SVG 1.1//EN" "http://www.w3.org/Graphics/SVG/1.1/DTD/svg11.dtd" >
<svg xmlns="http://www.w3.org/2000/svg">
<metadata>
Created by FontForge 20120731 at Tue Mar  1 15:56:59 2016
 By Ads
</metadata>
<defs>
<font id="iconfont" horiz-adv-x="1024" >
  <font-face 
    font-family="iconfont"
    font-weight="500"
    font-stretch="normal"
    units-per-em="1024"
    panose-1="2 0 6 3 0 0 0 0 0 0"
    ascent="896"
    descent="-128"
    x-height="792"
    bbox="-1 -128 1025 896"
    underline-thickness="50"
    underline-position="-100"
    unicode-range="U+0078-E615"
  />
<missing-glyph horiz-adv-x="374" 
d="M34 0v682h272v-682h-272zM68 34h204v614h-204v-614z" />
    <glyph glyph-name=".notdef" horiz-adv-x="374" 
d="M34 0v682h272v-682h-272zM68 34h204v614h-204v-614z" />
    <glyph glyph-name=".null" horiz-adv-x="0" 
 />
    <glyph glyph-name="nonmarkingreturn" horiz-adv-x="341" 
 />
    <glyph glyph-name="x" unicode="x" horiz-adv-x="1001" 
d="M281 543q-27 -1 -53 -1h-83q-18 0 -36.5 -6t-32.5 -18.5t-23 -32t-9 -45.5v-76h912v41q0 16 -0.5 30t-0.5 18q0 13 -5 29t-17 29.5t-31.5 22.5t-49.5 9h-133v-97h-438v97zM955 310v-52q0 -23 0.5 -52t0.5 -58t-10.5 -47.5t-26 -30t-33 -16t-31.5 -4.5q-14 -1 -29.5 -0.5
t-29.5 0.5h-32l-45 128h-439l-44 -128h-29h-34q-20 0 -45 1q-25 0 -41 9.5t-25.5 23t-13.5 29.5t-4 30v167h911zM163 247q-12 0 -21 -8.5t-9 -21.5t9 -21.5t21 -8.5q13 0 22 8.5t9 21.5t-9 21.5t-22 8.5zM316 123q-8 -26 -14 -48q-5 -19 -10.5 -37t-7.5 -25t-3 -15t1 -14.5
t9.5 -10.5t21.5 -4h37h67h81h80h64h36q23 0 34 12t2 38q-5 13 -9.5 30.5t-9.5 34.5q-5 19 -11 39h-368zM336 498v228q0 11 2.5 23t10 21.5t20.5 15.5t34 6h188q31 0 51.5 -14.5t20.5 -52.5v-227h-327z" />
    <glyph glyph-name="uniE600" unicode="&#xe600;" 
d="M884 807q-11 11 -24 16.5t-28 5.5h-219q-51 0 -87 -36q-2 -3 -4.5 -6t-6.5 -8q-7 10 -11 14q-7 7 -15 12.5t-16.5 10t-17.5 7.5t-18.5 4.5t-18.5 1.5h-220q-30 0 -52 -22q-10 -10 -15.5 -23.5t-5.5 -27.5v-561q0 -15 5.5 -28.5t15.5 -23.5q22 -21 52 -21h220q30 0 51 -22
q11 -10 16.5 -23.5t5.5 -27.5h48q0 30 21.5 51.5t52.5 21.5h219q15 0 28 5.5t24 15.5q21 22 21 52v561q0 14 -5.5 27.5t-15.5 23.5zM491 146q-33 24 -73 24h-220q-10 0 -17 7.5t-7 17.5v561q0 4 1.5 8.5t5.5 8.5q7 7 17 7h220q30 0 51 -21q7 -7 12 -15.5t7.5 -17.5t2.5 -19
v-561zM856 195q0 -10 -7 -17.5t-17 -7.5h-219q-20 0 -39 -6t-35 -18v561q0 30 21.5 51.5t52.5 21.5h219q3 0 6 -1t6 -2.5t5 -3.5q4 -4 5.5 -8.5t1.5 -8.5v-561zM222 634h221v48h-221v-48zM222 512h221v49h-221v-49zM222 390h221v49h-221v-49zM222 268h221v49h-221v-49z
M588 634h221v48h-221v-48zM588 512h221v49h-221v-49zM588 390h221v49h-221v-49zM588 268h221v49h-221v-49z" />
    <glyph glyph-name="uniE601" unicode="&#xe601;" 
d="M928 511l-253 253l-145 -145l-145 145l-326 -326l435 -434l471 471zM711 293l-108 109l-37 -36l109 -109l-36 -36l-109 109l-36 -37l109 -108l-37 -36l-108 108l-37 -36l109 -109l-36 -36l-362 362l253 254l362 -362zM784 366l-218 217l109 109l217 -217z" />
    <glyph glyph-name="uniE602" unicode="&#xe602;" 
d="M408 492q0 -6 4 -11t10 -5h1q2 -32 24 -57.5t51 -25.5t51.5 25.5t24.5 57.5q4 0 7.5 2t5.5 6t2 8q0 10 -9 14q5 15 5 30q0 25 -11.5 46t-31.5 33.5t-44 12.5q-36 0 -61 -27t-25 -65q0 -8 1 -15.5t3 -14.5q-4 -2 -6 -5.5t-2 -8.5v0zM314 246h368q4 0 6 2.5t2 5.5v29
q0 3 -2 6q-54 52 -125 70l-4 1h-4q-2 0 -4 -1q-22 -12 -52.5 -12t-52.5 12q-2 1 -4 1h-3h-2q-73 -18 -128 -71l-3 -6v-29q0 -8 8 -8v0zM709 143h-422q-5 0 -9 -4t-4 -10q1 -12 13 -14h422q4 0 7 2t5 5.5t2 6.5q0 6 -4 10t-10 4zM909 738l-149 148q-3 2 -5.5 4t-6 3.5t-6.5 2
t-7 0.5h-592q-5 0 -10.5 -2t-9.5 -5t-7.5 -7.5t-5 -9.5t-1.5 -11v-954q0 -15 10 -25t24 -10h742q9 0 17 4.5t12.5 12.5t4.5 18v807q0 14 -10 24v0zM178 -59v885h536v-113q0 -4 2 -8t4.5 -6.5t6.5 -4t8 -1.5h115v-752h-672zM178 -59z" />
    <glyph glyph-name="uniE603" unicode="&#xe603;" 
d="M293 483q22 -22 53 -22q14 0 28 6t25 16q22 22 22 53t-22 53l-8 6q-4 3 -8 5.5t-8.5 4.5t-9.5 3.5t-9.5 2t-9.5 0.5q-17 0 -33 -8q-11 -5 -20 -14q-22 -22 -22 -53q0 -6 1 -12.5t3.5 -13t5.5 -11.5q5 -9 12 -16zM346 432h-3q-52 -1 -92.5 -31t-52.5 -76q-5 -16 -5 -34
h305q0 58 -44.5 99.5t-107.5 41.5zM923 728h-825q-14 0 -24.5 -10.5t-10.5 -25.5v-613q0 -10 5 -18.5t13 -13.5t17 -5h825q5 0 9.5 1.5t8.5 4t7 5.5t5.5 7t3.5 9t1 10v613q0 15 -10 25.5t-25 10.5zM897 130q0 -13 -9 -21.5t-22 -8.5h-711q-13 0 -21.5 8.5t-8.5 21.5v511
q0 8 4 15t11 11t15 4h711q7 0 12.5 -2.5t9.5 -6.5t6.5 -9.5t2.5 -11.5v-511zM535 507h286v-56h-286v56zM535 399h286v-56h-286v56zM193 224h631v-56h-631v56z" />
    <glyph glyph-name="uniE604" unicode="&#xe604;" horiz-adv-x="1025" 
d="M351 -128l-6 1q-5 1 -9.5 3.5t-8 6t-4.5 8.5l-92 220l-212 83q-15 6 -18.5 22.5t8.5 27.5l65 65q9 9 22 9h2l157 -12l140 140l-345 169q-14 7 -16.5 22.5t8.5 26.5l64 64q9 8 21 8h6l471 -89l216 216q33 33 82 33q16 0 31 -4t28 -11.5t24 -17.5l5 -6q34 -34 34 -82.5
t-34 -82.5l-214 -214l94 -467q1 -8 -1 -15t-8 -13l-65 -65q-2 -2 -5.5 -4t-7.5 -3t-8 -1h-5q-15 2 -22 16l-173 336l-136 -136l13 -150q1 -14 -9 -24l-71 -71q-4 -4 -9.5 -6.5t-11.5 -2.5zM265 163q4 -1 7.5 -3.5t6 -6t3.5 -6.5l79 -190l29 28l-13 150q-2 14 8 24l176 176
q5 5 10.5 7t11.5 2h5q15 -3 22 -16l173 -337l23 24l-93 467q-4 16 8 27l226 226q16 17 16 40t-16 39l-6 6q-15 15 -38.5 15t-39.5 -15l-228 -228q-9 -9 -21 -9q-3 0 -6 1l-471 89l-21 -22l345 -168q14 -7 17 -23q1 -7 -1.5 -14t-7.5 -13l-180 -180q-9 -9 -22 -9h-2l-158 12
l-22 -22z" />
    <glyph glyph-name="uniE605" unicode="&#xe605;" 
d="M321 147h-47q-49 0 -65 -18q-16 -19 -8 -71l3 -14h248l1 16q3 54 -12 71q-10 10 -25.5 13t-40.5 3h-17h-20h-17zM420 77h-188q-2 25 3 30q6 8 40 7h100q16 0 27 -1.5t14 -4.5q5 -5 4 -31v0zM316 268q14 -14 33 -14t32.5 13.5t13.5 32.5t-14 33l-129 129q-13 13 -32.5 13
t-32.5 -13q-14 -14 -14 -33t14 -32zM210 438q2 2 4.5 3t5.5 1q5 -1 9 -4l129 -129q10 -9 0 -18q-9 -9 -18 0l-130 129q-2 3 -3 6t0 6.5t3 5.5zM623 572q6 -6 14.5 -9.5t17.5 -3.5q19 0 32.5 13.5t13.5 32.5t-13 32l-129 129q-7 6 -15.5 9.5t-17.5 3.5t-18 -3.5t-15.5 -10
t-10 -14.5t-3.5 -18q0 -19 14 -32zM517 743l4 2q2 1 5 1q6 0 9 -3l130 -129q9 -9 0 -18q-3 -2 -6 -3t-6.5 0t-5.5 3l-130 129q-2 1 -2.5 3.5t-0.5 5.5q-1 1 -0.5 3t1.5 3t2 3zM832 207l-289 263q10 8 22 16t22 15t18.5 12.5t12.5 8.5l5 3l18 11l-169 169l-225 -224l169 -169
l11 18l3 3q24 40 44 67l266 -282q19 -19 46 -19t47 19q18 18 18 44.5t-19 44.5v0zM410 365l-116 116l178 177l116 -116q-38 -25 -70 -49l-1 1l-6 -7q-7 -5 -14 -11t-13 -11q-28 -28 -74 -100v0zM809 141q-4 -3 -8.5 -5.5t-9.5 -3t-10 0t-9.5 2.5t-7.5 6l-267 283l21 23
l291 -263q9 -9 9 -21.5t-9 -21.5v0zM438 31h-229q-11 0 -18 -4t-7 -13q0 -10 7.5 -17.5t17.5 -7.5h229q10 0 17.5 7t7.5 18q0 17 -25 17zM438 31z" />
    <glyph glyph-name="uniE606" unicode="&#xe606;" 
d="M735 640h-607q-10 0 -20 -3.5t-18 -9.5t-13.5 -13.5t-9 -17.5t-3.5 -20v-384q0 -26 19 -45t45 -19h64v-159l160 159h383q18 0 32.5 9t23 23.5t8.5 31.5v384q0 39 -35 57q-14 6 -29 7v0zM735 192h-410l-69 -69v69h-128v384h607v-384zM272 336q20 0 34 14t14 34
q0 32 -29 44q-9 4 -19 4t-19 -4t-15.5 -10t-10 -15t-3.5 -19t3.5 -18.5t10 -15t15.5 -10.5t19 -4zM432 336q19 0 33.5 14t14.5 34t-14.5 34t-33.5 14q-8 0 -15.5 -2.5t-13.5 -7t-10.5 -10.5t-6.5 -13t-2 -15q0 -20 14 -34t34 -14zM591 336q8 0 15.5 2.5t13.5 7t10 10.5
t6.5 13t2.5 15q0 20 -14 34t-34 14q-7 0 -14.5 -2.5t-13.5 -7t-10.5 -10.5t-7 -13t-2.5 -15t2.5 -15t7 -13t10.5 -10.5t13.5 -7t14.5 -2.5zM895 799h-607q-7 0 -13 -1t-12 -3.5t-11 -6t-9.5 -8t-8 -9.5t-5.5 -10.5t-3.5 -12t-1.5 -12.5v-64h64v64h607v-384h-64v-64h64
q26 0 45 19t19 45v384q0 26 -19 44.5t-45 18.5zM895 799z" />
    <glyph glyph-name="uniE607" unicode="&#xe607;" 
d="M832 637h-160v35q0 41 -27.5 68.5t-68.5 27.5h-128q-41 0 -68.5 -27.5t-27.5 -68.5v-35h-160q-53 0 -90.5 -37.5t-37.5 -90.5v-384q0 -53 37.5 -90.5t90.5 -37.5h640q35 0 64.5 17t46.5 46.5t17 64.5v384q0 34 -17 63.5t-46.5 47t-64.5 17.5zM416 672q0 14 9 23t23 9h128
q14 0 23 -9t9 -23v-35h-192v35zM192 573h640q26 0 45 -19t19 -45v-125h-128v32h-96v-32h-320v32h-96v-32h-128v125q0 26 19 45t45 19zM832 61h-640q-26 0 -45 18.5t-19 45.5v195h128v-32h96v32h320v-32h96v32h128v-195q0 -27 -19 -45.5t-45 -18.5z" />
    <glyph glyph-name="uniE608" unicode="&#xe608;" 
d="M814 -63q-60 0 -132 56.5t-107 128.5h-126q-34 -72 -106.5 -127.5t-132.5 -55.5q-41 0 -74 31t-52 75.5t-31.5 100t-17 99.5t-4.5 79q0 98 68.5 167.5t165.5 69.5h494q48 0 91 -18.5t74 -50t49.5 -75.5t18.5 -92q0 -28 -3 -64t-10 -81t-21 -86.5t-32.5 -77.5t-47.5 -57.5
t-64 -21.5zM431 177h162q6 0 11 -2.5t9 -6.5t6 -9q24 -62 87.5 -114.5t107.5 -52.5q24 0 44.5 23t34.5 59.5t24.5 81.5t15.5 88.5t5 80.5q0 49 -24 91t-65.5 66.5t-89.5 24.5h-494q-73 0 -126 -54.5t-53 -128.5q0 -52 8.5 -108.5t23.5 -106.5t39.5 -82.5t52.5 -32.5t67.5 23
t75.5 62.5t52 79.5q3 8 10.5 13t15.5 5zM491 205h-13q-4 0 -7 1.5t-5 5t-2 6.5q0 6 4 10t10 4h13q4 0 7 -2t5 -5t2 -7q0 -5 -4 -9t-10 -4zM211 31q-3 0 -6.5 1.5t-5 4.5t-1.5 7q0 6 4 10t9 4q30 0 86.5 57.5t75.5 107.5q4 9 13 9h50q6 0 10 -4t4 -9.5t-4 -9.5t-10 -4h-41
q-16 -35 -48 -75.5t-70.5 -69.5t-65.5 -29zM512 510q-6 0 -11.5 2.5t-9.5 7.5q-8 8 -7 19.5t10 18.5q38 31 39 65q0 16 -13 29q-11 10 -18 16.5t-18 20t-15.5 26.5t-7.5 30t3.5 36t20.5 39q7 9 18 10.5t20.5 -5t11 -17.5t-4.5 -21q-13 -17 -14.5 -30.5t8 -28t32.5 -36.5
q11 -9 18 -20t10.5 -24t3.5 -26q-1 -28 -16.5 -56t-42.5 -50q-1 -1 -3 -2t-3.5 -2t-3.5 -1.5t-3 -0.5h-4zM263 204q-3 0 -6.5 1.5t-5 5t-1.5 6.5v192q0 4 1.5 7.5t5 5t6.5 1.5q6 0 10 -4t4 -10v-192q0 -5 -4 -9t-10 -4zM354 301h-192q-6 0 -10 4t-4 9.5t4 9.5t10 4h192
q6 0 10 -4t4 -9.5t-4 -9.5t-10 -4zM769 312q-20 0 -33.5 14t-13.5 33q0 10 3.5 18.5t10 15t15.5 10t18 3.5t17.5 -3.5t15.5 -10t10.5 -15t3.5 -18t-3.5 -18t-10.5 -15.5t-15.5 -10.5t-17.5 -3.5zM769 379q-9 0 -14.5 -6t-5.5 -14t6 -14q3 -3 8.5 -4.5t10.5 0t8 4.5t4.5 6.5
t1.5 7.5t-1.5 7.5t-4 6.5t-6 4.5t-7.5 1.5zM844 237q-20 0 -33.5 13.5t-13.5 33.5q0 6 1.5 12t4.5 11.5t8 9.5q6 7 15 10.5t18 3.5t18 -3.5t15 -10.5q14 -14 14 -33.5t-14 -32.5q-7 -7 -15.5 -10.5t-17.5 -3.5zM844 304q-2 0 -4 -0.5t-3.5 -1.5t-3.5 -2t-3 -2q-6 -6 -6 -14
t6 -13.5t14 -5.5t13.5 5.5t5.5 13.5t-5 14q-3 3 -6.5 4.5t-7.5 1.5zM693 237q-9 0 -17.5 3.5t-15.5 10.5q-14 13 -14 33q0 4 0.5 7.5t1.5 6.5l4 8q1 3 3 6t5 5q9 9 21 12t24.5 0t21.5 -12q4 -4 7 -9.5t4.5 -11.5t1.5 -12q0 -9 -3.5 -18t-9.5 -15q-5 -5 -10 -8t-11 -4.5
t-13 -1.5zM693 304q-8 0 -13.5 -6t-5.5 -14t5.5 -14t14 -5.5t13.5 5.5q2 2 3.5 4t2 4.5t0.5 5.5q0 8 -6 14t-14 6zM769 162q-7 0 -13 1.5t-11 4.5t-10 7q-6 7 -9.5 15.5t-3.5 18t3.5 18t9.5 15.5q14 13 34 13t33 -13q3 -3 5.5 -7t4.5 -8.5t3 -9t1 -8.5q0 -7 -1.5 -13t-5 -11
t-8 -9.5t-9.5 -7.5t-11 -4.5t-12 -1.5zM769 228q-8 0 -14 -5.5t-6 -13.5t6 -14q1 -2 3 -3t4 -1.5t4.5 -1t4.5 0.5h4l4 2t3 3q6 6 6 14t-6 13q-6 6 -13 6z" />
    <glyph glyph-name="uniE609" unicode="&#xe609;" 
d="M183 676h148v-109h-148v109zM403 676h147v-109h-147v109zM183 493h148v-109h-148v109zM403 493h147v-109h-147v109zM768 493h73v-109h-73v109zM768 311h73v-108h-73v108zM183 311h148v-108h-148v108zM403 311h147v-108h-147v108zM988 -19v659h-293v220h-659v-877h-36v-73
h1024v73h-36v-2zM109 -19v806h512v-804h-512v-2zM695 -19v586h220v-584h-220v-2z" />
    <glyph glyph-name="uniE60A" unicode="&#xe60a;" 
d="M564 225h-447q-20 0 -29 17q-2 5 -3 11t0.5 11.5t5.5 10.5q66 91 110 153q5 7 13 10.5t16.5 2.5t15.5 -6q10 -8 12.5 -21t-5.5 -23q-33 -46 -74 -103h322q-39 55 -75 106q-8 11 -5.5 24t13 20.5t23.5 5t21 -12.5q12 -18 24.5 -36t23 -32.5t21 -28.5t17.5 -24t13.5 -18.5
t9 -12t3.5 -4.5q11 -15 2.5 -32.5t-28.5 -17.5zM341 -64q-13 0 -22 9.5t-9 22.5v284q0 13 9 22.5t22 9.5q5 0 9 -1t7.5 -3t6.5 -5t5 -6.5t3 -8t1 -8.5v-284q0 -13 -9.5 -22.5t-22.5 -9.5zM564 384h-112q-8 0 -15.5 4.5t-11.5 11.5t-4 16q0 13 9 22.5t22 9.5h57l-169 294
l-169 -294h58q13 0 22.5 -9.5t9.5 -22.5q0 -7 -2.5 -12.5t-7 -10t-10.5 -7t-12 -2.5h-113q-8 0 -15.5 4.5t-11.5 11.5t-4 15.5t4 16.5l224 389q2 5 6.5 8.5t9.5 5.5t11 2q18 0 28 -16l223 -389q9 -16 0 -32q-3 -5 -7 -8.5t-9.5 -5.5t-10.5 -2zM738 -8q-6 0 -11 2.5t-9 6
t-6 8.5t-2 11v234q0 12 8 20t20 8q5 0 10.5 -2t9 -6t5.5 -9t2 -11v-234q0 -11 -8 -19.5t-19 -8.5zM919 229h-363q-6 0 -11 2t-8.5 6t-6 9t-2.5 11q0 7 5.5 17.5t12.5 21.5t8 13q21 48 59 138t56.5 134.5t28.5 67.5q7 16 24 17q9 0 16 -4t10 -11l196 -381q7 -14 -1.5 -27.5
t-23.5 -13.5zM604 285h269l-147 287q-82 -198 -121 -285q0 -1 -1 -2z" />
    <glyph glyph-name="uniE60B" unicode="&#xe60b;" 
d="M1025 381q0 70 -18.5 136.5t-51.5 122.5t-80.5 103.5t-103.5 80.5t-122.5 51.5t-136.5 18.5q-104 0 -199 -40.5t-164 -109.5t-109.5 -164t-40.5 -199q0 -122 55 -231.5t154 -181.5l14 -9q1 -1 5 -3t9.5 -4t8.5 -2q15 0 25.5 10.5t10.5 26.5q0 20 -19 31q-59 41 -102 98
t-65.5 125t-22.5 140q0 89 35 170.5t94 140.5t140.5 94t170.5 35t170.5 -35t140.5 -94t94 -140.5t35 -170.5q0 -16 -1 -32t-3.5 -31.5t-6 -30.5t-7.5 -29.5t-9.5 -29t-12 -28.5t-13.5 -27q-5 -9 -10.5 -18t-12.5 -19q-4 -6 -9 -13q-8 -11 -14 -18.5t-12 -14.5
q-8 -10 -17 -19t-18 -17q-6 -5 -26 -20q-2 -2 -5 -4t-5 -4l-6 -4q-2 -2 -5 -4l-6 -4q-19 -12 -25 -16q-24 -13 -51 -24q-8 -3 -27 -10q-10 -3 -19.5 -5.5t-19.5 -5.5q-2 0 -6 -1t-6.5 -1.5t-5.5 -1.5t-6 -1q-75 -7 -128 22t-73 76q-21 53 9 104q41 -22 84 -22q78 0 131 57
l117 124l-41 44l79 79q11 11 11 26t-10.5 25.5t-26 10.5t-25.5 -10l-77 -77l-67 74l73 73q11 11 11 26t-10.5 26t-25.5 11t-26 -11l-72 -72l-36 40l-136 -144q-22 -24 -34.5 -54t-13.5 -61t8.5 -61.5t29.5 -56.5q-58 -84 -19 -178q25 -62 88.5 -103.5t153.5 -41.5q12 0 35 2
v-1q1 0 2 0.5t2 0.5h2q1 0 2 1q2 1 4.5 1t4.5 1t4 1t4.5 1t4.5 1q25 6 32 8q3 1 8.5 3t7.5 3q24 8 31 10q31 13 59 29q7 4 28 18q17 11 34 24q22 17 28 22q21 20 43 44q3 4 6.5 8t7 9t6.5 8.5t7 9.5l14 20q17 25 25 40l-1 1q63 117 63 242zM401 380l82 87l145 -157l-71 -75
q-29 -32 -74.5 -33.5t-76.5 28.5q-32 30 -33.5 74t28.5 76z" />
    <glyph glyph-name="uniE60C" unicode="&#xe60c;" 
d="M877 435l-42 195q-11 54 -58 92t-101 38h-327q-55 0 -102 -38t-58 -92l-42 -195q-17 -7 -31.5 -19t-25 -27t-17 -32.5t-8.5 -35.5l-9 -125q-3 -41 17.5 -74t56.5 -48q6 -22 20 -39t34 -26.5t43 -9.5q31 0 56.5 18t36.5 47h384q11 -29 36.5 -47t57.5 -18q34 0 60.5 21
t35.5 54q36 14 56.5 47.5t17.5 74.5l-9 125q-5 65 -62 103q-10 7 -20 11zM863 122q-21 -5 -22 -26q-1 -17 -13.5 -29t-29.5 -12q-7 0 -13.5 2t-11.5 5.5t-9 8.5t-6.5 11t-3.5 13q-1 10 -9 17.5t-18 7.5h-429q-11 0 -19 -7.5t-9 -17.5q-1 -12 -7 -21t-15.5 -14t-20.5 -5
q-18 0 -30.5 12t-13.5 29q0 7 -3 12t-7.5 9t-10.5 5q-24 6 -38 25t-12 44l9 125q2 25 18.5 45t41.5 27l4 2q2 1 4 2.5t3.5 3t3 3.5t2.5 4t1.5 4t1 4.5t0.5 4.5v3l43 200q7 34 38 59.5t67 25.5h327q23 0 45.5 -11.5t38.5 -31.5t21 -42l42 -200v-2v-1t0.5 -2t0.5 -2
q1 -9 6.5 -15t13.5 -9q24 -7 40.5 -27t18.5 -45l10 -125q3 -43 -34 -63q-8 -4 -16 -6zM698 250q0 -7 1.5 -14t4.5 -13.5t7.5 -12t10 -9.5t11.5 -7t13 -5t15 -2q26 0 44.5 18.5t18.5 44.5q0 8 -2 15t-5 13t-7 11.5t-9.5 10t-12 7.5t-13.5 4.5t-14 1.5q-26 0 -44.5 -18.5
t-18.5 -44.5zM297 409h430q8 0 14.5 2.5t10.5 7.5q9 11 7 27q-1 1 -1 2l-34 146q-2 12 -9.5 21.5t-18.5 15.5t-22 6h-323q-18 0 -33 -12.5t-18 -30.5l-34 -146v-2q-3 -16 6 -26q4 -5 10.5 -8t14.5 -3zM354 581h316l27 -116h-370zM200 250q0 -26 18.5 -44.5t45 -18.5t45 18.5
t18.5 44.5t-18.5 44.5t-45 18.5t-45 -18.5t-18.5 -44.5z" />
    <glyph glyph-name="uniE60D" unicode="&#xe60d;" 
d="M983 136q-4 31 -29.5 75.5t-64.5 91t-67 76.5t-56 57v262h38q13 0 22.5 9.5t9.5 22.5v109q0 13 -9.5 22.5t-22.5 9.5h-370q-13 0 -22.5 -9.5t-9.5 -22.5v-71h-182q-13 0 -22.5 -9.5t-9.5 -22.5v-108q0 -13 9.5 -22.5t22.5 -9.5h38v-262q-28 -27 -56 -57.5t-67 -76.5
t-65 -91t-29 -76q-5 -48 24 -79q22 -24 55 -24h573q32 0 53 23q27 30 22 79h133q34 0 57 25q29 33 25 79zM699 -5l-6 -1h-573q-5 0 -8 3q-9 10 -7 30q4 38 70 120t137 150q3 3 5 7t3 8t1 8v308q0 13 -9 22.5t-23 9.5h-37v44h306v-44h-38q-13 0 -22.5 -9.5t-9.5 -22.5v-308
q0 -3 0.5 -6t2 -6t3.5 -5.5t4 -5.5q71 -68 137 -150t70 -120q2 -22 -6 -32zM911 100q-4 -4 -10 -4h-156q-52 99 -193 238v262h38q13 0 22.5 9.5t9.5 22.5v108q0 13 -9.5 22.5t-22.5 9.5h-124v39h306v-45h-38q-13 0 -22.5 -9t-9.5 -23v-307q0 -5 1.5 -9t3.5 -7.5t5 -6.5
q71 -69 137 -150.5t70 -120.5q1 -17 -8 -29z" />
    <glyph glyph-name="uniE60E" unicode="&#xe60e;" 
d="M50 679h36v-667h-36v667zM212 264h36v-252h-36v252zM50 46h931v-36h-931v36zM793 770h125v-37h-125v37zM919 645h-36l-2 124l36 1zM431 662l22 -28l-283 -225l-23 28zM657 468l-26 22l243 251l26 -25zM401 638l31 25l245 -165l-20 -30zM425 442h36v-430h-36v430zM653 353
h36v-341h-36v341zM868 529h36v-517h-36v517z" />
    <glyph glyph-name="uniE60F" unicode="&#xe60f;" 
d="M715 67h-506q-12 0 -21 8.5t-9 21t9 21t21 8.5h506q8 0 15 -4t11 -10.5t4 -14.5q0 -5 -1.5 -9.5t-4.5 -8.5t-6.5 -6.5t-8 -4t-9.5 -1.5zM770 -86h-616q-24 0 -44.5 12t-32.5 32.5t-12 44.5v762q0 37 26 63t63 26h417q8 0 15 -4t11 -10.5t4 -15.5q0 -12 -9 -20.5t-21 -8.5
h-417q-4 0 -8 -1t-7 -3t-6 -4.5t-4.5 -6t-3 -7.5t-1.5 -8v-762q0 -13 9 -21.5t21 -8.5h616q12 0 21 8.5t9 21.5v235q0 8 4 15t10.5 11t14.5 4q6 0 11.5 -2.5t9.5 -6.5t6.5 -9.5t2.5 -11.5v-235q0 -37 -26 -63t-63 -26zM394 215q-13 0 -21 8t-8.5 18t4.5 65l6 77
q3 29 19 63.5t36 55.5l283 283q25 25 63 25t63 -25l96 -96q26 -26 26 -62.5t-26 -62.5l-283 -283q-21 -21 -55.5 -37t-64.5 -18l-76 -7q-56 -4 -62 -4zM776 752q-6 0 -11.5 -2.5t-9.5 -6.5l-283 -283q-13 -14 -24.5 -38.5t-13.5 -43.5l-6 -77q-1 -3 -1 -8.5t-0.5 -9.5
t-0.5 -7q6 1 12 1.5t13 0.5l76 6q20 2 44.5 13.5t38.5 25.5l283 283q8 8 8 20.5t-8 20.5l-96 96q-9 8 -21 9z" />
    <glyph glyph-name="uniE610" unicode="&#xe610;" 
d="M915 171v73h-177h-216v-73h-1v-95h396v95h-2zM539 227h178v-54h-178v54zM894 99h-349v49h349v-49zM899 172h-161v56h161v-56zM349 174h-2v336h374v-107v-12v-13q1 -7 10 -13h1q4 -2 7 -5.5t3 -8.5q0 -6 -4.5 -10.5t-10.5 -4.5q-7 0 -11 6h-1l-4 4l-4 4q-2 2 -4.5 3t-5 1
t-5 -0.5t-3.5 -0.5l-2 -1q-2 -2 -3 -4.5t-1 -4.5t0.5 -4t0.5 -3l1 -2q-1 0 4.5 -5.5t17 -11.5t24.5 -6q8 0 14.5 3.5t10 8.5t6 11t3.5 11t1 8.5t-2.5 8t-6.5 8.5t-7.5 6.5t-5.5 3.5q-6 3 -4 12v18v100h98q6 0 12 2t10.5 5.5t8 8t5.5 10.5t2 12v4v6q0 2 -1 4l-2 6
q-1 2 -2.5 4.5t-3 4.5t-3.5 3.5t-5 3.5l1 3l-538 122q-6 4 -13 6t-15 2h-42q-10 0 -20 -4.5t-17 -11.5t-11 -16.5t-4 -20.5v-74q-16 0 -27 -11t-11 -27v-4q0 -10 5 -19t13.5 -14t19.5 -5v-336h-3q-7 0 -13 -3t-10.5 -7.5t-7.5 -10.5t-3 -13v-38q0 -9 4.5 -16.5t12.5 -12
t17 -4.5h152q13 0 23 9.5t10 23.5v38q0 9 -4.5 17t-12 12.5t-16.5 4.5zM739 590h-392v74q0 4 -1 8l-2 8zM228 664q0 10 7 17t17 7h42q10 0 17 -7t7 -17v-74h-90v74zM228 510h90v-336h-90v336zM353 102q0 -5 -4 -5h-152q-4 2 -5 5v38q0 5 5 5h152q4 0 4 -5v-38z" />
    <glyph glyph-name="uniE611" unicode="&#xe611;" 
d="M717 -6l-163 372q44 25 44 73q0 12 -3 23.5t-8.5 20.5t-13.5 17t-17.5 13.5t-20.5 9t-23 3.5q-36 0 -61 -25.5t-25 -61.5q0 -48 44 -73l-163 -372q-10 -24 1 -41.5t38 -17.5h332q27 0 38 17.5t1 41.5zM380 -1l132 302l132 -302h-264zM332 244l27 64q-11 13 -20.5 28
t-16 31.5t-10 35t-3.5 36.5q0 84 59.5 143.5t143.5 59.5q41 0 78.5 -16t65 -43t43.5 -64.5t16 -79.5q0 -37 -13.5 -70.5t-36.5 -60.5l27 -64q87 80 87 195q0 55 -21.5 104t-57 85t-85 57t-103.5 21q-110 0 -188.5 -78t-78.5 -189q0 -115 87 -195zM273 111l27 62
q-30 23 -53.5 52.5t-41 63.5t-26.5 72t-9 78q0 93 46 172t124.5 125t171.5 46t171.5 -46t124.5 -125t46 -172q0 -79 -35 -148.5t-95 -117.5l27 -62q51 38 88 88t58 112t21 128q0 111 -54.5 204.5t-148 148t-203.5 54.5q-83 0 -158 -32.5t-129.5 -87t-86.5 -129.5t-32 -158
q0 -99 45 -185t122 -143z" />
    <glyph glyph-name="uniE613" unicode="&#xe613;" 
d="M483 832q-91 0 -174 -35.5t-143 -95.5t-95.5 -143t-35.5 -174t35.5 -174t95.5 -143t143 -95.5t174 -35.5t174 35.5t143 95.5t95.5 143t35.5 174t-35.5 174t-95.5 143t-143 95.5t-174 35.5zM483 -31q-113 0 -208.5 55.5t-151 151t-55.5 208.5t55.5 208.5t151 151
t208.5 55.5t208.5 -55.5t151 -151t55.5 -208.5q0 -38 -6.5 -74.5t-19.5 -70t-31 -64.5t-41 -58t-50 -50t-58 -41t-64.5 -31t-70 -19.5t-74.5 -6.5zM483 757q-42 0 -71.5 -29.5t-29.5 -71.5q0 -14 3.5 -27t10 -24t16 -20.5t20.5 -16t24 -10t27 -3.5t27 3.5t24 10t20.5 16
t16 20.5t10 24t3.5 27q0 42 -29.5 71.5t-71.5 29.5zM483 584q-7 0 -13 1t-12 3.5t-11.5 5.5t-10 7t-8.5 8.5t-7 10t-5 11.5t-3.5 12t-1.5 13q0 30 21 51t51 21t51 -21t21 -51t-21 -51t-51 -21zM483 212q-42 0 -71.5 -29.5t-29.5 -71.5t29.5 -71.5t71.5 -29.5t71.5 29.5
t29.5 71.5q0 27 -13.5 50.5t-37 37t-50.5 13.5zM483 39q-30 0 -51 21t-21 51t21 51t51 21t51 -21t21 -51q0 -12 -3.5 -22.5t-10.5 -19.5t-15.5 -15.5t-19.5 -10.5t-23 -4zM483 485q-21 0 -39.5 -8t-32 -21.5t-21.5 -32t-8 -39.5q0 -55 47 -85q25 -16 54 -16q42 0 71.5 29.5
t29.5 71.5q0 12 -2.5 23t-7.5 21t-12 19t-16 16t-19 12t-21 7.5t-23 2.5zM483 312q-30 0 -51 21t-21 51t21 51t51 21q12 0 23 -3.5t19.5 -10.5t15.5 -15.5t10.5 -19.5t3.5 -23q0 -19 -9.5 -36t-26 -26.5t-36.5 -9.5zM211 485q-14 0 -27 -3.5t-24 -10t-20 -16t-15.5 -20.5
t-10.5 -24t-4 -27q0 -21 8 -39.5t21.5 -32t32.5 -21.5t39 -8q42 0 71.5 29.5t29.5 71.5q0 27 -13.5 50.5t-36.5 37t-51 13.5zM211 312q-19 0 -35.5 9.5t-26.5 26.5t-10 36t10 36t26.5 26.5t36 9.5t36 -9.5t26 -26.5t9.5 -36q0 -30 -21 -51t-51 -21zM755 485
q-42 0 -71.5 -29.5t-29.5 -71.5t29.5 -71.5t71.5 -29.5t71.5 29.5t29.5 71.5q0 14 -3.5 27t-10 24t-16 20.5t-20.5 16t-24 10t-27 3.5zM755 312q-30 0 -51 21t-21 51q0 15 5.5 28t15.5 22.5t23 15.5t28 6q30 0 51 -21t21 -51q0 -19 -10 -36t-26.5 -26.5t-35.5 -9.5z" />
    <glyph glyph-name="uniE614" unicode="&#xe614;" 
d="M986 -128h-788q-16 0 -23 17q-2 5 -2 9v0v787q0 9 8 17t17 8h788q9 0 17 -8t8 -17v0v-787q0 -10 -8 -18t-17 -8zM960 659h-736v-736h736v736zM352 531h474q9 0 17 -8t8 -17q0 -10 -8 -18t-17 -8h-474q-10 0 -18 8t-8 18q0 9 8 17t18 8zM352 320h474q9 0 17 -8t8 -18
q0 -9 -8 -17t-17 -8h-474q-10 0 -18 8t-8 17q0 10 8 18t18 8zM352 109h474q9 0 17 -8t8 -18q0 -9 -8 -17t-17 -8h-474q-10 0 -18 8t-8 17q0 10 8 18t18 8zM749 845h-685v-730h77v-51h-103q-9 0 -17 8t-8 18v128v518v134q0 10 8 18t17 8h736q7 0 13 -3.5t9.5 -9.5t3.5 -13
v-102h-51v77zM749 845z" />
    <glyph glyph-name="uniE615" unicode="&#xe615;" horiz-adv-x="1025" 
d="M672 384q-9 0 -16 -4.5t-11.5 -11.5t-4.5 -16q0 -13 9.5 -22.5t22.5 -9.5t22.5 9.5t9.5 22.5t-9.5 22.5t-22.5 9.5zM992 256h-64q0 3 -0.5 6t-1.5 5l-128 336q-8 21 -30 21h-128q-12 0 -21 -8l-38 -33l-108 140q-13 18 -34 12l-256 -75q-6 -2 -10.5 -5.5t-8 -8.5
t-4.5 -11l-64 -374v-3l1 -2h-65q-4 0 -8.5 -1t-8 -3t-6.5 -5t-5 -6.5t-3 -8t-1 -8.5q0 -13 9.5 -22.5t22.5 -9.5h51l77 -171q0 -8 9.5 -14.5t22.5 -6.5h6q-6 -17 -6 -32q0 -40 28 -68t68 -28t68 28t28 68q0 15 -6 32h268q-6 -17 -6 -32q0 -40 28 -68t68 -28t68 28t28 68
q0 15 -6 32h6q13 0 22.5 6.5t9.5 14.5l77 171h51q13 0 22.5 9.5t9.5 22.5q0 9 -4.5 16t-11.5 11.5t-16 4.5zM220 604l216 63l115 -150q8 -11 22 -13q14 -1 24 8l55 48h94l116 -304h-702zM320 -32q0 -13 -9.5 -22.5t-22.5 -9.5q-9 0 -16 4.5t-11.5 11.5t-4.5 16
q0 13 9.5 22.5t22.5 9.5t22.5 -9.5t9.5 -22.5zM768 -32q0 -9 -4.5 -16t-11.5 -11.5t-16 -4.5t-16 4.5t-11.5 11.5t-4.5 16q0 13 9.5 22.5t22.5 9.5t22.5 -9.5t9.5 -22.5zM813 64h-602l-58 128h718zM407 471q-7 6 -15 8t-16 0t-15 -8l-64 -64q-9 -10 -9 -23t9.5 -22.5
t22.5 -9.5t23 9l41 42l41 -42q5 -4 11 -6.5t12 -2.5q13 0 22.5 9.5t9.5 22.5t-9 23z" />
  </font>
</defs>
</svg>
